<svg width="86" height="30" viewBox="0 0 86 30" fill="none" xmlns="http://www.w3.org/2000/svg">
<path d="M24.8584 11.3371L18.7238 11.3371C17.171 11.3361 15.863 12.4121 15.4426 13.8861L14.3549 13.8861C13.9355 12.411 12.6264 11.3361 11.0736 11.335L4.94115 11.335C3.04882 11.335 1.51836 12.9315 1.51836 14.9004C1.51836 16.8672 3.05202 18.4626 4.94221 18.4648L11.0768 18.4648C12.6275 18.4637 13.9377 17.3856 14.357 15.9147H15.4447C15.864 17.3877 17.1742 18.4637 18.7238 18.4637L24.8574 18.4648C26.7497 18.4648 28.2823 16.8683 28.2823 14.9015C28.2812 12.9336 26.7497 11.3382 24.8584 11.3371ZM9.9508 16.3851L5.90008 16.3851C4.65272 16.3851 3.64164 15.7189 3.6427 14.9004C3.6427 14.0788 4.65591 13.4147 5.90327 13.4147L9.9508 13.4157C10.6937 13.4157 11.3493 13.652 11.7601 14.0139C11.4472 14.1863 11.2312 14.5151 11.2301 14.9015C11.2301 15.2846 11.4451 15.6146 11.7601 15.787C11.3493 16.1488 10.6916 16.3851 9.9508 16.3851ZM23.8133 16.3862L19.7668 16.3862C19.0591 16.3872 18.4269 16.1723 18.015 15.8391C18.3822 15.6869 18.6397 15.3229 18.6397 14.9015C18.6397 14.4779 18.3811 14.1192 18.0118 13.9649C18.4279 13.6318 19.0569 13.4157 19.7668 13.4168L23.8144 13.4157C25.0628 13.4168 26.0739 14.0809 26.0739 14.9004C26.076 15.7221 25.0628 16.3862 23.8133 16.3862Z" fill="#959A9F"/>
<path d="M52.7061 11.3371L46.5715 11.3371C45.0187 11.3361 43.7106 12.4121 43.2902 13.8861H42.2025C41.7832 12.411 40.4741 11.3361 38.9213 11.335L32.7888 11.335C30.8965 11.335 29.366 12.9315 29.366 14.9004C29.366 16.8672 30.8997 18.4626 32.7899 18.4648L38.9245 18.4648C40.4752 18.4637 41.7853 17.3856 42.2047 15.9147H43.2924C43.7117 17.3877 45.0219 18.4637 46.5715 18.4637L52.705 18.4648C54.5973 18.4648 56.1299 16.8683 56.1299 14.9015C56.1289 12.9336 54.5973 11.3382 52.7061 11.3371ZM37.7985 16.3851L33.7477 16.3851C32.5004 16.3851 31.4893 15.7189 31.4904 14.9004C31.4904 14.0788 32.5036 13.4147 33.7509 13.4147L37.7985 13.4157C38.5413 13.4157 39.1969 13.652 39.6078 14.0139C39.2949 14.1863 39.0788 14.5151 39.0777 14.9015C39.0777 15.2846 39.2927 15.6146 39.6078 15.787C39.1969 16.1488 38.5392 16.3851 37.7985 16.3851ZM51.6609 16.3862L47.6145 16.3862C46.9067 16.3872 46.2745 16.1723 45.8626 15.8391C46.2298 15.6869 46.4874 15.3229 46.4874 14.9015C46.4874 14.4779 46.2288 14.1192 45.8595 13.9649C46.2756 13.6318 46.9046 13.4157 47.6145 13.4168L51.662 13.4157C52.9104 13.4168 53.9215 14.0809 53.9215 14.9004C53.9236 15.7221 52.9104 16.3862 51.6609 16.3862Z" fill="#959A9F"/>
<rect x="24.835" y="13.8474" width="7.67624" height="1.98679" rx="0.993396" fill="#959A9F"/>
<path d="M80.7061 11.3371L74.5715 11.3371C73.0187 11.3361 71.7106 12.4121 71.2902 13.8861H70.2025C69.7832 12.411 68.4741 11.3361 66.9213 11.335L60.7888 11.335C58.8965 11.335 57.366 12.9315 57.366 14.9004C57.366 16.8672 58.8997 18.4626 60.7899 18.4648L66.9245 18.4648C68.4752 18.4637 69.7853 17.3856 70.2047 15.9147H71.2924C71.7117 17.3877 73.0219 18.4637 74.5715 18.4637L80.705 18.4648C82.5973 18.4648 84.1299 16.8683 84.1299 14.9015C84.1289 12.9336 82.5973 11.3382 80.7061 11.3371ZM65.7985 16.3851L61.7477 16.3851C60.5004 16.3851 59.4893 15.7189 59.4904 14.9004C59.4904 14.0788 60.5036 13.4147 61.7509 13.4147L65.7985 13.4157C66.5413 13.4157 67.1969 13.652 67.6078 14.0139C67.2949 14.1863 67.0788 14.5151 67.0777 14.9015C67.0777 15.2846 67.2927 15.6146 67.6078 15.787C67.1969 16.1488 66.5392 16.3851 65.7985 16.3851ZM79.6609 16.3862L75.6145 16.3862C74.9067 16.3872 74.2745 16.1723 73.8626 15.8391C74.2298 15.6869 74.4874 15.3229 74.4874 14.9015C74.4874 14.4779 74.2288 14.1192 73.8595 13.9649C74.2756 13.6318 74.9046 13.4157 75.6145 13.4168L79.662 13.4157C80.9104 13.4168 81.9215 14.0809 81.9215 14.9004C81.9236 15.7221 80.9104 16.3862 79.6609 16.3862Z" fill="#959A9F"/>
<rect x="52.835" y="13.8474" width="7.67624" height="1.98679" rx="0.993396" fill="#959A9F"/>
</svg>
